# xmcd
#
# Track frame offsets:
#	150
#	14842
#	31511
#	44159
#	59919
#	77190
#	97781
#	115324
#	135274
#	152946
#	172077
#
# Disc length: 2660 seconds
#
# Revision: 0
# Processed by: cddbd v1.5.2PL0 Copyright (c) Steve Scherf et al.
# Submitted via: EasyCDDAExtractor 10.0.1.1
#
DISCID=940a620b
DTITLE=Mocni w Duchu - Jezusowi chwala czesc
DYEAR=2002
DGENRE=Ballad
TTITLE0=Jezusowi chwala czesc
TTITLE1=Nie boj sie uwierzyc w cud
TTITLE2=Chce do Ciebie nalezec
TTITLE3=Ty ukochales mnie
TTITLE4=Pragne trwac u Twych stop
TTITLE5=Slowo odwieczne
TTITLE6=Jestem z Toba, Jezu
TTITLE7=Serce Jezusa
TTITLE8=Wyplyn na glebie
TTITLE9=Z Jezusem w Chwale Ojca
TTITLE10=Jestes zyciem i zmartwychwstaniem
EXTD=
EXTT0=
EXTT1=
EXTT2=
EXTT3=
EXTT4=
EXTT5=
EXTT6=
EXTT7=
EXTT8=
EXTT9=
EXTT10=
PLAYORDER=
